<?xml version="1.0" encoding="utf-8"?>
<!-- Generator: Adobe Illustrator 19.2.1, SVG Export Plug-In . SVG Version: 6.00 Build 0)  -->
<svg version="1.1" id="Layer_1" xmlns="http://www.w3.org/2000/svg" xmlns:xlink="http://www.w3.org/1999/xlink" x="0px" y="0px"
	 viewBox="0 0 44.3 46.8" style="enable-background:new 0 0 44.3 46.8;" xml:space="preserve">
<style type="text/css">
	.st0{fill:#EB563B;}
</style>
<rect x="21.1" y="7.7" class="st0" width="2" height="14.8"/>
<g>
	<g>
		<path class="st0" d="M35.4,24.5c0,7.4-6,13.4-13.4,13.4c-7.4,0-13.4-6-13.4-13.4c0-6,4.2-11.3,10.2-12.9l0.4-0.1l0,2.6l-0.3,0.1
			c-4.6,1.2-7.7,5.3-7.7,10.3c0,5.9,4.8,10.7,10.7,10.7c5.9,0,10.7-4.8,10.7-10.7c0-4.8-3-8.9-7.4-10.2L25,14.2l0-2.7l0.5,0.1
			C31.3,13.4,35.4,18.7,35.4,24.5z"/>
	</g>
</g>
</svg>
