<?xml version="1.0" encoding="utf-8"?>
<!-- Generator: Adobe Illustrator 19.2.1, SVG Export Plug-In . SVG Version: 6.00 Build 0)  -->
<svg version="1.1" id="Layer_1" xmlns="http://www.w3.org/2000/svg" xmlns:xlink="http://www.w3.org/1999/xlink" x="0px" y="0px"
	 viewBox="0 0 44.3 46.8" style="enable-background:new 0 0 44.3 46.8;" xml:space="preserve">
<style type="text/css">
	.st0{fill:#EB563B;}
</style>
<g>
	<rect x="20.8" y="9.3" class="st0" width="2.8" height="16.3"/>
	<path class="st0" d="M25.9,12.8v2.8c3.6,1.5,5.9,5.1,5.9,9.3c0,2.5-0.8,4.7-2.1,6.4c-0.7,1-1.8,1.9-1.8,1.9
		c-1.5,1.2-3.5,1.9-5.6,1.9c-5.6,0-9.7-4.5-9.7-10.1c0-4.2,2.3-7.8,5.8-9.3v-2.7c-5.3,1.6-8.6,6.6-8.6,12.1c0,6.8,5,12.7,12.5,12.7
		c3,0,5.7-1,7.7-2.6c0.9-0.7,1.9-1.8,1.9-1.8c1.9-2.2,2.9-5.1,2.9-8.2C34.7,19.3,31.3,14.4,25.9,12.8"/>
</g>
</svg>
